<svg fill="none" height="32" viewBox="0 0 32 32" width="32" xmlns="http://www.w3.org/2000/svg" xmlns:xlink="http://www.w3.org/1999/xlink"><clipPath id="a"><path d="m0 0h32v32h-32z"/></clipPath><g clip-path="url(#a)"><path d="m31 2v28c0 .55-.45 1-1 1h-28c-.55 0-1-.45-1-1v-28c0-.55.45-1 1-1h28c.55 0 1 .45 1 1z" fill="#ffc44d"/><path d="m5 9h8m-6.8281 16.833 5.656-5.656m7.1721-11.177h8m-18 4v-8m11.1719 20.833 5.656-5.656m.0002 5.656-5.656-5.656m10.8279 9.823c0 .553-.447 1-1 1h-28c-.553 0-1-.447-1-1v-28c0-.553.447-1 1-1h28c.553 0 1 .447 1 1z" stroke="#000" stroke-linecap="round" stroke-linejoin="round" stroke-width="2"/></g></svg>